<?xml version="1.0" encoding="UTF-8" standalone="no"?>
<!-- Generated by IcoMoon.io -->

<svg
   xmlns:dc="http://purl.org/dc/elements/1.1/"
   xmlns:cc="http://creativecommons.org/ns#"
   xmlns:rdf="http://www.w3.org/1999/02/22-rdf-syntax-ns#"
   xmlns:svg="http://www.w3.org/2000/svg"
   xmlns="http://www.w3.org/2000/svg"
   xmlns:sodipodi="http://sodipodi.sourceforge.net/DTD/sodipodi-0.dtd"
   xmlns:inkscape="http://www.inkscape.org/namespaces/inkscape"
   version="1.1"
   width="16"
   height="16"
   viewBox="0 0 16 16"
   id="svg4136"
   inkscape:version="0.91 r13725"
   sodipodi:docname="391-mail4.svg">
  <metadata
     id="metadata4144">
    <rdf:RDF>
      <cc:Work
         rdf:about="">
        <dc:format>image/svg+xml</dc:format>
        <dc:type
           rdf:resource="http://purl.org/dc/dcmitype/StillImage" />
        <dc:title></dc:title>
      </cc:Work>
    </rdf:RDF>
  </metadata>
  <defs
     id="defs4142" />
  <sodipodi:namedview
     pagecolor="#ffffff"
     bordercolor="#666666"
     borderopacity="1"
     objecttolerance="10"
     gridtolerance="10"
     guidetolerance="10"
     inkscape:pageopacity="0"
     inkscape:pageshadow="2"
     inkscape:window-width="1920"
     inkscape:window-height="1017"
     id="namedview4140"
     showgrid="false"
     inkscape:zoom="53"
     inkscape:cx="8"
     inkscape:cy="8"
     inkscape:window-x="1358"
     inkscape:window-y="-8"
     inkscape:window-maximized="1"
     inkscape:current-layer="svg4136" />
  <path
     fill="#000000"
     d="M8 0c-4.418 0-8 3.582-8 8s3.582 8 8 8 8-3.582 8-8-3.582-8-8-8zM4 4h8c0.143 0 0.281 0.031 0.409 0.088l-4.409 5.143-4.409-5.143c0.127-0.058 0.266-0.088 0.409-0.088zM3 11v-6c0-0.021 0.001-0.042 0.002-0.063l2.932 3.421-2.9 2.9c-0.023-0.083-0.034-0.17-0.034-0.258zM12 12h-8c-0.088 0-0.175-0.012-0.258-0.034l2.846-2.846 1.413 1.648 1.413-1.648 2.846 2.846c-0.083 0.023-0.17 0.034-0.258 0.034zM13 11c0 0.088-0.012 0.175-0.034 0.258l-2.9-2.9 2.932-3.421c0.001 0.021 0.002 0.042 0.002 0.063v6z"
     id="path4138"
     style="fill:#262626;fill-opacity:1" />
  <path
     style="opacity:0.77999998;fill:#ffffff;fill-opacity:1;stroke:none;stroke-width:7.69999981;stroke-miterlimit:4;stroke-dasharray:none;stroke-opacity:1"
     d="M 5.7986298,6.6485819 C 4.3415825,4.9497734 3.6172318,4.0916171 3.6326091,4.0824432 3.645316,4.0748625 3.7052441,4.0557587 3.7657826,4.0399904 3.8626257,4.014766 4.3714514,4.0113208 8,4.0113208 c 3.628548,0 4.137374,0.00345 4.234217,0.02867 0.06054,0.015768 0.120792,0.034872 0.133897,0.042453 0.01618,0.00936 -0.677221,0.8308072 -2.161394,2.5605143 C 9.0048489,8.0436596 8.0139072,9.1922196 8.004627,9.195313 7.995347,9.1984064 7.0026481,8.0523774 5.7986298,6.6485819 Z"
     id="path4713"
     inkscape:connector-curvature="0" />
  <path
     style="opacity:0.77999998;fill:#ffffff;fill-opacity:1;stroke:none;stroke-width:7.69999981;stroke-miterlimit:4;stroke-dasharray:none;stroke-opacity:1"
     d="M 11.51369,9.798596 10.075545,8.3603589 11.523622,6.6681398 c 0.796442,-0.9307205 1.454663,-1.6927446 1.462713,-1.693387 0.02298,-0.00183 0.0079,6.1907092 -0.01513,6.2295132 -0.01648,0.02772 -0.233454,-0.181535 -1.457511,-1.40567 z"
     id="path4715"
     inkscape:connector-curvature="0" />
  <path
     style="opacity:0.77999998;fill:#ffffff;fill-opacity:1;stroke:none;stroke-width:7.69999981;stroke-miterlimit:4;stroke-dasharray:none;stroke-opacity:1"
     d="m 3.8254717,11.979042 c -0.028538,-0.0044 -0.051887,-0.01379 -0.051887,-0.02091 0,-0.0071 0.6329503,-0.645471 1.4065561,-1.418558 l 1.4065562,-1.4056127 0.041557,0.047693 c 0.022856,0.026231 0.3377757,0.393448 0.6998206,0.8160378 0.3620451,0.4225893 0.6649723,0.7683453 0.6731717,0.7683453 0.0082,0 0.3259313,-0.362972 0.7060711,-0.806604 0.3801397,-0.4436321 0.6970398,-0.8087318 0.7042225,-0.8113327 0.022841,-0.00827 2.8233478,2.8044317 2.8077768,2.8200037 -0.01501,0.01501 -8.2970064,0.0258 -8.3938453,0.01094 z"
     id="path4717"
     inkscape:connector-curvature="0" />
  <path
     style="opacity:0.77999998;fill:#ffffff;fill-opacity:1;stroke:none;stroke-width:7.69999981;stroke-miterlimit:4;stroke-dasharray:none;stroke-opacity:1"
     d="M 3.0263391,11.206634 C 3.0055407,11.163652 2.9929507,4.9731036 3.013665,4.9747441 3.0252924,4.9756649 5.6761615,8.0601875 5.8715779,8.3001806 L 5.9224009,8.362597 4.4828226,9.8020832 C 3.2575996,11.027228 3.040727,11.236367 3.0263391,11.206634 Z"
     id="path4719"
     inkscape:connector-curvature="0" />
</svg>
