<?xml version="1.0" encoding="UTF-8" standalone="no"?>
<svg
   xmlns:dc="http://purl.org/dc/elements/1.1/"
   xmlns:cc="http://creativecommons.org/ns#"
   xmlns:rdf="http://www.w3.org/1999/02/22-rdf-syntax-ns#"
   xmlns:svg="http://www.w3.org/2000/svg"
   xmlns="http://www.w3.org/2000/svg"
   xmlns:sodipodi="http://sodipodi.sourceforge.net/DTD/sodipodi-0.dtd"
   xmlns:inkscape="http://www.inkscape.org/namespaces/inkscape"
   enable-background="new 0 0 2650.502 1019.005"
   version="1.1"
   viewBox="0 0 281.4217 116.83582"
   id="svg4147"
   inkscape:version="0.91 r13725"
   sodipodi:docname="logo-basic.svg"
   width="281.42169"
   height="116.83582">
  <metadata
     id="metadata4155">
    <rdf:RDF>
      <cc:Work
         rdf:about="">
        <dc:format>image/svg+xml</dc:format>
        <dc:type
           rdf:resource="http://purl.org/dc/dcmitype/StillImage" />
        <dc:title></dc:title>
      </cc:Work>
    </rdf:RDF>
  </metadata>
  <defs
     id="defs4153" />
  <sodipodi:namedview
     pagecolor="#ffffff"
     bordercolor="#666666"
     borderopacity="1"
     objecttolerance="10"
     gridtolerance="10"
     guidetolerance="10"
     inkscape:pageopacity="0"
     inkscape:pageshadow="2"
     inkscape:window-width="1920"
     inkscape:window-height="1017"
     id="namedview4151"
     showgrid="false"
     inkscape:zoom="1"
     inkscape:cx="57.093739"
     inkscape:cy="223.81321"
     inkscape:window-x="1358"
     inkscape:window-y="-8"
     inkscape:window-maximized="1"
     inkscape:current-layer="svg4147"
     fit-margin-top="0"
     fit-margin-left="0"
     fit-margin-right="0"
     fit-margin-bottom="0" />
  <path
     d="m 128.04084,42.256588 c 6.40615,-5.86812 14.80739,-8.39715 25.60688,-6.90942 4.60178,0.57817 9.0609,0.0637 11.77082,-3.18543 12.20217,-14.62951 26.32757,-24.8815605 47.82038,-29.4144405 14.83982,-3.12970998 28.35744,-3.64241998 40.82162,-1.24431 5.49896,1.05802 11.00945,1.57482 16.39329,1.78652 3.38734,0.13313 6.31814,1.43793 7.89777,3.58157 1.29151,1.75248 2.23125,3.7579805 2.92194,5.9425805 0.56462,1.78574 -0.51437,3.81609 -2.73043,4.92404 -0.0177,0.009 -0.0354,0.0173 -0.0531,0.0263 -3.44473,1.30954 -4.53185,6.45032 -4.42335,13.91962 0.17676,12.14827 -4.05542,23.2215 -14.9408,31.92399 -12.88419,10.30099 -28.65296,15.63859 -45.57977,14.84497 -24.51985,-1.14997 -41.13819,-12.83246 -46.73354,-18.51135 -6.88889,-6.99019 -9.43206,-12.47651 -22.18811,-9.30198 -9.34241,2.32492 -13.35412,4.45898 -13.69234,11.11426 -0.82841,16.27255 -6.67222,29.87759 -24.04079,41.376572 -20.909486,13.84355 -40.703146,16.37492 -62.793296,11.26753 -12.29316,-2.84231 -22.14299,-10.83548 -29.74539,-23.927982 -2.02911,-3.49399 -5.4109896,-5.21603 -9.6565396,-5.75841 -1.73698,-0.2219 -3.0371,-1.19126 -3.42161,-2.48437 -1.77589996,-5.97188 -2.34581,-11.11715 2.67666,-12.4311 4.16427,-1.59175 8.2464496,-4.00737 12.2563496,-7.14201 20.21921,-17.7874 43.72164,-25.5731 71.2415,-26.35302 8.52335,-0.24148 19.664106,2.37125 32.022506,7.08562 3.23855,1.22326 6.10753,0.89975 8.5682,-1.13168 z m -66.133546,3.23065 c -25.69749,6.70092 -42.28385,26.32213 -37.04615,43.82484 5.2377,17.502722 30.31616,26.259322 56.01365,19.558412 25.697456,-6.70091 42.283846,-26.322102 37.046126,-43.824832 -5.2377,-17.50272 -30.316156,-26.25933 -56.013626,-19.55842 z M 212.48557,7.6149075 c -25.69749,6.7009205 -42.28384,26.3221105 -37.04613,43.8248305 5.2377,17.50272 30.31614,26.25934 56.01363,19.55842 25.69747,-6.70091 42.28385,-26.32212 37.04615,-43.82483 C 263.2615,9.6705975 238.18304,0.91399752 212.48557,7.6149075 Z"
     id="path4149"
     inkscape:connector-curvature="0"
     style="fill:#000000" />
</svg>
